<svg width="1992" height="1070" viewBox="0 0 1992 1070" fill="none" xmlns="http://www.w3.org/2000/svg">
<g clip-path="url(#clip0_779_1974)">
<path d="M1992 -217H0V1109H1992V-217Z" fill="#63CAFF"/>
<path d="M-65.8945 -52.9194L-213.044 79.3901L2015.02 285.991L2011.4 219.322L-65.8945 -52.9194Z" fill="white" fill-opacity="0.18"/>
<path d="M-72.7225 131.863L-222.392 339.804L2015.92 425.659L2013.12 328.437L-72.7225 131.863Z" fill="white" fill-opacity="0.18"/>
<path d="M-105.228 460.822L-242.639 657.03L1996.48 635.193L1988.09 546.71L-105.228 460.822Z" fill="white" fill-opacity="0.18"/>
<path fill-rule="evenodd" clip-rule="evenodd" d="M0 798.777H1955.89V620.349C1898.13 605.887 1800.03 588.298 1701.03 602.297C1546.47 624.145 1509.98 601.249 1441.29 587.731C1372.6 574.196 1344.69 615.832 1273.85 622.067C1203.02 628.302 1164.38 584.605 1072.08 588.762C979.772 592.918 938.987 667.842 827.364 664.716C715.741 661.59 702.862 605.406 571.92 605.406C440.978 605.406 404.486 676.155 297.157 660.559C211.705 648.123 123.472 583.557 0 567.257V798.777Z" fill="#BFD1FF"/>
<path fill-rule="evenodd" clip-rule="evenodd" d="M0 563.993V798.777H1992V620.349C1934.25 605.886 1836.14 588.298 1737.14 602.296C1582.59 624.145 1546.09 601.249 1477.4 587.731C1408.71 574.196 1380.81 615.832 1309.97 622.067C1239.13 628.302 1200.49 584.605 1108.19 588.761C1015.89 592.918 975.101 667.842 863.478 664.716C751.856 661.589 738.976 605.405 608.034 605.405C477.092 605.405 440.6 676.155 333.271 660.559C239.697 646.955 142.843 570.829 0 563.993Z" fill="#339AF3"/>
<path fill-rule="evenodd" clip-rule="evenodd" d="M0 665.592V798.777H1992V736.564C1899.97 718.443 1766.75 694.946 1694.23 694.946C1576.16 694.946 1421.61 741.477 1294.96 706.403C1168.31 671.329 1194.65 640.549 1095.33 673.476C996 706.403 966.532 730.725 887.108 718.564C807.684 706.403 778.714 674.558 734.7 697.093C690.704 719.629 663.863 740.034 590.879 734.658C517.895 729.282 518.959 712.105 488.924 722.841C458.872 733.576 463.165 738.935 436.341 730.347C409.518 721.758 407.354 720.694 386.97 728.2C366.586 735.706 215.243 655.2 58.5589 661.641C36.2344 662.586 16.8464 663.943 0 665.592Z" fill="#2780D2"/>
<path fill-rule="evenodd" clip-rule="evenodd" d="M1486.86 591.647C1480.99 590.29 1474.95 588.967 1468.64 587.731C1410.15 576.223 1381.23 604.667 1330.21 617.24C1347.49 621.465 1365.38 623.887 1386.01 622.066C1429.28 618.253 1456.54 601.231 1486.86 591.647Z" fill="#92C0FF"/>
<path fill-rule="evenodd" clip-rule="evenodd" d="M0 1016.93V1108.98H1910.45C1940.24 1069.06 1968.39 1025.32 1992 986.12V870.884C1831.57 880.606 1431.95 903.88 1356.83 898.984C1262.37 892.818 1370.16 925.986 1201.25 927.532C1032.34 929.077 757.952 922.602 798.737 950.513C839.522 978.425 712.874 956.955 410.204 956.955C107.535 956.955 335.074 963.396 242.771 991.307C190.514 1007.11 83.2533 1013.96 0 1016.93Z" fill="#A9FFFF"/>
<path fill-rule="evenodd" clip-rule="evenodd" d="M0 1037.8V1109H1992V875.968C1614.78 906.25 306.842 1011.39 0 1037.8Z" fill="#FFE1AD"/>
<path fill-rule="evenodd" clip-rule="evenodd" d="M0 1037.8V1082.89L1992 900.083V875.968C1614.78 906.25 306.842 1011.39 0 1037.8Z" fill="#F8F5EE"/>
<path fill-rule="evenodd" clip-rule="evenodd" d="M1508.37 760.044C1508.37 760.044 135.304 748.931 165.03 770.47C194.756 792.01 1306.95 768.925 972.714 781.292C638.481 793.659 93.7631 787.887 165.03 802.745C236.297 817.585 1784.67 781.292 1508.37 760.044Z" fill="#A9FFFF"/>
<path fill-rule="evenodd" clip-rule="evenodd" d="M1465.84 913.447C1465.6 911.231 1460.9 909.943 1455.33 910.561C1449.77 911.179 1445.46 913.481 1445.72 915.697C1445.96 917.913 1450.68 919.218 1456.23 918.582C1461.79 917.964 1466.1 915.662 1465.84 913.447Z" fill="white"/>
<path fill-rule="evenodd" clip-rule="evenodd" d="M1486.3 921.434C1486.13 919.905 1482.86 918.995 1479.02 919.441C1475.17 919.871 1472.18 921.451 1472.35 922.997C1472.52 924.525 1475.79 925.436 1479.63 925.006C1483.48 924.577 1486.47 922.979 1486.3 921.451V921.434Z" fill="white"/>
<path fill-rule="evenodd" clip-rule="evenodd" d="M1588.94 1032.79C1588.94 1032.79 1579 1043.7 1561.63 1033.96C1544.29 1024.23 1588.94 1032.79 1588.94 1032.79Z" fill="#D1811A"/>
<path fill-rule="evenodd" clip-rule="evenodd" d="M1932.67 1003.4C1932.67 1003.4 1908.28 1030.11 1865.76 1006.29C1823.24 982.444 1932.67 1003.4 1932.67 1003.4Z" fill="#D1811A"/>
<path fill-rule="evenodd" clip-rule="evenodd" d="M1313.51 963.379C1310.05 964.495 1312.87 982.685 1319.81 1004C1326.75 1025.32 1335.16 1041.69 1338.61 1040.55C1342.06 1039.44 1339.25 1021.25 1332.31 999.93C1325.37 978.614 1316.96 962.262 1313.51 963.379Z" fill="#360823"/>
<path fill-rule="evenodd" clip-rule="evenodd" d="M1340.4 976.759C1338.25 976.587 1335.85 990.397 1335.04 1007.61C1334.23 1024.82 1335.33 1038.9 1337.48 1039.07C1339.63 1039.25 1342.03 1025.44 1342.84 1008.23C1343.64 991.015 1342.56 976.931 1340.4 976.759Z" fill="#360823"/>
<path fill-rule="evenodd" clip-rule="evenodd" d="M1355.91 997.199C1352.93 996.34 1347.27 1004.96 1343.27 1016.45C1339.27 1027.94 1338.44 1037.94 1341.41 1038.8C1344.4 1039.66 1350.05 1031.04 1354.05 1019.55C1358.05 1008.05 1358.88 998.058 1355.91 997.199Z" fill="#360823"/>
<path fill-rule="evenodd" clip-rule="evenodd" d="M1312.75 1001.68C1317.27 1001.03 1325.84 1007.57 1331.9 1016.26C1337.96 1024.97 1339.21 1032.55 1334.7 1033.18C1330.18 1033.84 1321.61 1027.29 1315.55 1018.6C1309.49 1009.89 1308.23 1002.32 1312.75 1001.68Z" fill="#360823"/>
<path fill-rule="evenodd" clip-rule="evenodd" d="M1297.38 1013.24C1300.71 1011.52 1309.13 1014.25 1316.17 1019.37C1323.23 1024.47 1326.25 1030.01 1322.92 1031.74C1319.58 1033.46 1311.17 1030.71 1304.13 1025.61C1297.07 1020.51 1294.05 1014.98 1297.38 1013.24Z" fill="#360823"/>
<path fill-rule="evenodd" clip-rule="evenodd" d="M1364.85 1016.28C1363.98 1015.06 1359.25 1016.63 1354.27 1019.77C1349.31 1022.91 1345.98 1026.45 1346.85 1027.67C1347.73 1028.89 1352.45 1027.33 1357.43 1024.18C1362.4 1021.04 1365.73 1017.5 1364.85 1016.28Z" fill="#360823"/>
<path fill-rule="evenodd" clip-rule="evenodd" d="M992.736 1009.76C990.504 1010.48 992.324 1022.28 996.823 1036.1C1001.32 1049.93 1006.78 1060.55 1009.02 1059.81C1011.25 1059.09 1009.43 1047.29 1004.93 1033.46C1000.43 1019.63 994.969 1009.02 992.736 1009.76Z" fill="#D1811A"/>
<path fill-rule="evenodd" clip-rule="evenodd" d="M1010.17 1018.43C1008.78 1018.33 1007.21 1027.27 1006.7 1038.44C1006.18 1049.6 1006.89 1058.74 1008.28 1058.85C1009.67 1058.95 1011.23 1050 1011.75 1038.83C1012.26 1027.67 1011.56 1018.53 1010.17 1018.43Z" fill="#D1811A"/>
<path fill-rule="evenodd" clip-rule="evenodd" d="M1020.23 1031.69C1018.29 1031.14 1014.63 1036.72 1012.02 1044.18C1009.43 1051.63 1008.9 1058.12 1010.82 1058.67C1012.76 1059.22 1016.42 1053.62 1019.03 1046.17C1021.62 1038.71 1022.17 1032.22 1020.23 1031.67V1031.69Z" fill="#D1811A"/>
<path fill-rule="evenodd" clip-rule="evenodd" d="M992.238 1034.61C995.174 1034.2 1000.74 1038.42 1004.67 1044.07C1008.6 1049.72 1009.41 1054.64 1006.49 1055.05C1003.55 1055.46 997.99 1051.24 994.058 1045.59C990.125 1039.93 989.318 1035.02 992.238 1034.61Z" fill="#D1811A"/>
<path fill-rule="evenodd" clip-rule="evenodd" d="M982.261 1042.12C984.425 1041 989.869 1042.79 994.454 1046.08C999.022 1049.4 1001 1052.99 998.833 1054.1C996.669 1055.22 991.225 1053.43 986.64 1050.14C982.072 1046.82 980.097 1043.23 982.261 1042.12Z" fill="#D1811A"/>
<path fill-rule="evenodd" clip-rule="evenodd" d="M1026.03 1044.07C1025.47 1043.28 1022.39 1044.3 1019.18 1046.34C1015.95 1048.38 1013.81 1050.67 1014.37 1051.46C1014.94 1052.25 1018.01 1051.24 1021.23 1049.19C1024.45 1047.15 1026.6 1044.86 1026.03 1044.07Z" fill="#D1811A"/>
<path fill-rule="evenodd" clip-rule="evenodd" d="M1801.09 992.235C1801.09 992.235 1786.91 1007.78 1762.16 993.918C1737.41 980.04 1801.09 992.235 1801.09 992.235Z" fill="#FFE619"/>
<path fill-rule="evenodd" clip-rule="evenodd" d="M1775.85 820.986C1774.22 820.986 1772.89 819.664 1772.89 818.032C1772.89 816.4 1774.22 815.078 1775.85 815.078C1777.48 815.078 1778.8 816.4 1778.8 818.032C1778.8 819.664 1777.48 820.986 1775.85 820.986Z" fill="#EFBD19"/>
<path fill-rule="evenodd" clip-rule="evenodd" d="M1915.86 795.136C1914.22 795.136 1912.9 793.813 1912.9 792.181C1912.9 790.55 1914.22 789.227 1915.86 789.227C1917.49 789.227 1918.81 790.55 1918.81 792.181C1918.81 793.813 1917.49 795.136 1915.86 795.136Z" fill="#EFBD19"/>
<path fill-rule="evenodd" clip-rule="evenodd" d="M1610.23 1072.38C1606.99 1072.38 1604.33 1069.72 1604.33 1066.47C1604.33 1063.22 1606.97 1060.56 1610.23 1060.56C1613.5 1060.56 1616.14 1063.21 1616.14 1066.47C1616.14 1069.73 1613.5 1072.38 1610.23 1072.38Z" fill="#EFBD19"/>
<path fill-rule="evenodd" clip-rule="evenodd" d="M1503.99 1046.62C1498.37 1046.62 1493.79 1045.29 1493.79 1043.66C1493.79 1042.03 1498.37 1040.71 1503.99 1040.71C1509.6 1040.71 1514.19 1042.03 1514.19 1043.66C1514.19 1045.29 1509.6 1046.62 1503.99 1046.62Z" fill="#EFBD19"/>
<path fill-rule="evenodd" clip-rule="evenodd" d="M1551.21 1060.29C1548.39 1060.29 1546.11 1058.96 1546.11 1057.33C1546.11 1055.7 1548.39 1054.38 1551.21 1054.38C1554.03 1054.38 1556.31 1055.7 1556.31 1057.33C1556.31 1058.96 1554.03 1060.29 1551.21 1060.29Z" fill="#EFBD19"/>
<path fill-rule="evenodd" clip-rule="evenodd" d="M1432.63 1055.74C1420.53 1055.74 1410.65 1054.31 1410.65 1052.56C1410.65 1050.81 1420.53 1049.38 1432.63 1049.38C1444.74 1049.38 1454.61 1050.81 1454.61 1052.56C1454.61 1054.31 1444.74 1055.74 1432.63 1055.74Z" fill="#EFBD19"/>
<path fill-rule="evenodd" clip-rule="evenodd" d="M1390.75 1065.35C1378.64 1065.35 1368.77 1063.93 1368.77 1062.18C1368.77 1060.43 1378.64 1059 1390.75 1059C1402.86 1059 1412.73 1060.43 1412.73 1062.18C1412.73 1063.93 1402.86 1065.35 1390.75 1065.35Z" fill="#EFBD19"/>
<path fill-rule="evenodd" clip-rule="evenodd" d="M1582.72 1057.95C1582.42 1058 1476.05 1074.58 1456.78 1074.58C1437.41 1074.58 1353.54 1071.04 1353.3 1071.02H1353.21C1353.06 1071.02 1299.87 1073.5 1293.78 1076.28C1290.96 1077.55 1278.49 1078.2 1265.78 1078.55C1253.13 1078.87 1240.01 1078.87 1236.23 1078.87C1227.49 1078.87 1099.59 1078.15 1099.23 1078.15V1080.18C1099.59 1080.18 1229.96 1080.9 1236.23 1080.9C1239.96 1080.9 1252.87 1080.9 1265.84 1080.56C1278.77 1080.21 1291.51 1079.53 1294.6 1078.12C1300.25 1075.56 1351.87 1073.1 1353.28 1073.05C1355.49 1073.14 1437.77 1076.61 1456.8 1076.61C1476.17 1076.61 1582.76 1060 1583.07 1059.94L1582.76 1057.95H1582.72Z" fill="#EFBD19"/>
<path fill-rule="evenodd" clip-rule="evenodd" d="M1086 1075.87C1086.33 1075.85 1202.79 1068.88 1209.44 1068.57C1215.83 1068.27 1302.48 1050.93 1302.72 1050.88C1321.8 1046.53 1373.1 1045.41 1395.64 1043.66L1395.71 1045.69L1302.98 1052.88C1300.49 1053.38 1215.84 1070.32 1209.44 1070.61C1203.21 1070.9 1086.36 1077.88 1086.02 1077.89V1075.87H1086Z" fill="#EFBD19"/>
<path fill-rule="evenodd" clip-rule="evenodd" d="M683.544 1025.49C682.101 1025.97 683.286 1033.61 686.188 1042.56C689.108 1051.53 692.645 1058.4 694.088 1057.92C695.548 1057.45 694.346 1049.79 691.443 1040.84C688.524 1031.88 684.986 1025.01 683.544 1025.49Z" fill="#EFBD19"/>
<path fill-rule="evenodd" clip-rule="evenodd" d="M694.861 1031.11C693.951 1031.04 692.955 1036.84 692.611 1044.07C692.268 1051.3 692.732 1057.23 693.642 1057.3C694.552 1057.37 695.548 1051.56 695.891 1044.33C696.235 1037.1 695.771 1031.17 694.861 1031.11Z" fill="#EFBD19"/>
<path fill-rule="evenodd" clip-rule="evenodd" d="M701.368 1039.69C700.115 1039.33 697.745 1042.96 696.045 1047.78C694.362 1052.61 694.018 1056.82 695.272 1057.18C696.526 1057.54 698.913 1053.92 700.578 1049.09C702.261 1044.26 702.605 1040.05 701.351 1039.69H701.368Z" fill="#EFBD19"/>
<path fill-rule="evenodd" clip-rule="evenodd" d="M683.234 1041.58C685.123 1041.31 688.73 1044.06 691.288 1047.71C693.83 1051.37 694.362 1054.55 692.456 1054.83C690.567 1055.1 686.961 1052.35 684.402 1048.69C681.861 1045.04 681.328 1041.86 683.234 1041.58Z" fill="#EFBD19"/>
<path fill-rule="evenodd" clip-rule="evenodd" d="M676.778 1046.44C678.169 1045.72 681.706 1046.87 684.677 1049.02C687.648 1051.17 688.919 1053.49 687.511 1054.21C686.12 1054.93 682.582 1053.78 679.611 1051.63C676.64 1049.48 675.387 1047.17 676.778 1046.44Z" fill="#EFBD19"/>
<path fill-rule="evenodd" clip-rule="evenodd" d="M705.13 1047.71C704.769 1047.2 702.777 1047.85 700.682 1049.17C698.587 1050.5 697.196 1051.97 697.557 1052.49C697.918 1053.01 699.91 1052.35 702.005 1051.03C704.1 1049.71 705.491 1048.23 705.13 1047.71Z" fill="#EFBD19"/>
<path fill-rule="evenodd" clip-rule="evenodd" d="M845.206 1038.04C843.764 1038.51 844.949 1046.17 847.851 1055.12C850.77 1064.08 854.308 1070.95 855.75 1070.47C857.21 1069.99 856.008 1062.35 853.106 1053.4C850.186 1044.43 846.649 1037.56 845.206 1038.04Z" fill="#D1811A"/>
<path fill-rule="evenodd" clip-rule="evenodd" d="M856.506 1043.66C855.596 1043.59 854.6 1049.4 854.256 1056.63C853.913 1063.86 854.376 1069.79 855.287 1069.85C856.197 1069.92 857.193 1064.12 857.536 1056.89C857.88 1049.66 857.416 1043.73 856.506 1043.66Z" fill="#D1811A"/>
<path fill-rule="evenodd" clip-rule="evenodd" d="M863.03 1052.25C861.777 1051.89 859.39 1055.51 857.707 1060.34C856.024 1065.17 855.68 1069.37 856.934 1069.73C858.188 1070.1 860.575 1066.47 862.24 1061.64C863.923 1056.82 864.267 1052.61 863.013 1052.25H863.03Z" fill="#D1811A"/>
<path fill-rule="evenodd" clip-rule="evenodd" d="M844.898 1054.14C846.787 1053.86 850.393 1056.61 852.952 1060.27C855.494 1063.93 856.026 1067.11 854.12 1067.38C852.231 1067.66 848.625 1064.91 846.066 1061.25C843.524 1057.59 842.992 1054.41 844.881 1054.14H844.898Z" fill="#D1811A"/>
<path fill-rule="evenodd" clip-rule="evenodd" d="M838.44 1059C839.831 1058.28 843.368 1059.43 846.339 1061.58C849.31 1063.72 850.581 1066.04 849.173 1066.76C847.782 1067.48 844.244 1066.33 841.273 1064.19C838.303 1062.04 837.049 1059.72 838.44 1059Z" fill="#D1811A"/>
<path fill-rule="evenodd" clip-rule="evenodd" d="M866.793 1060.27C866.432 1059.76 864.44 1060.41 862.345 1061.73C860.267 1063.05 858.859 1064.53 859.237 1065.05C859.598 1065.56 861.59 1064.91 863.685 1063.59C865.78 1062.26 867.171 1060.79 866.81 1060.27H866.793Z" fill="#D1811A"/>
<path fill-rule="evenodd" clip-rule="evenodd" d="M1363.08 834.693C1363.08 834.693 569.516 828.269 0 831.481V863.395C422.844 862.227 881.372 854.566 593.643 865.233C555.022 866.658 514.443 867.929 472.524 869.046C322.71 873.048 155.808 875.281 0 877.033V897.507C663.845 887.081 1636.83 855.751 1363.08 834.693Z" fill="#A9FFFF"/>
<path fill-rule="evenodd" clip-rule="evenodd" d="M1398.27 868.737C1398.27 868.737 890.285 880.09 901.275 887.717C912.266 895.36 1323.74 874.285 1200.1 882.633C1076.45 890.98 874.915 894.965 901.275 899.672C927.635 904.361 1500.5 873.495 1398.27 868.754V868.737Z" fill="#A9FFFF"/>
<path fill-rule="evenodd" clip-rule="evenodd" d="M769.302 948.521C675.694 946.15 566.493 941.822 580.145 934.797C590.964 929.214 564.329 926.243 532.508 924.646C566.664 925.917 604.461 925.401 588.439 933.44C578.479 938.438 679.128 944.313 769.302 948.521Z" fill="white"/>
<path fill-rule="evenodd" clip-rule="evenodd" d="M660.085 972.963C488.032 968.6 287.283 960.665 312.389 947.731C332.293 937.476 283.333 932.014 224.809 929.077C287.592 931.413 357.073 930.486 327.604 945.24C309.298 954.412 494.3 965.233 660.068 972.963H660.085Z" fill="white"/>
<path fill-rule="evenodd" clip-rule="evenodd" d="M145.264 0.813782C145.264 0.813782 186.049 -21.0002 229.771 -68.9224L252.421 -166.879L245.655 -87.4042C259.943 -105.079 274.076 -125.57 286.715 -149.033L284.552 -176.206L295.834 -166.948C306.052 -187.577 314.999 -203.98 322.83 -217H234.974C196.627 -178.937 160.994 -112.963 145.264 0.813782Z" fill="white"/>
<path fill-rule="evenodd" clip-rule="evenodd" d="M1168.5 931.173C1054.13 928.27 920.681 922.997 937.356 914.392C950.579 907.573 918.037 903.948 879.141 901.99C920.87 903.536 967.065 902.918 947.488 912.743C935.313 918.84 1058.3 926.037 1168.5 931.173Z" fill="white"/>
<path fill-rule="evenodd" clip-rule="evenodd" d="M143.307 0.813782C143.307 0.813782 183.594 -21.0002 226.268 -68.9224L246.738 -166.879L241.741 -87.4042C255.651 -105.079 269.303 -125.57 281.444 -149.033L278.679 -176.206L290.168 -166.948C299.905 -187.577 308.508 -203.98 316.047 -217H228.191C190.703 -178.937 156.512 -112.963 143.307 0.813782Z" fill="#283748"/>
<path fill-rule="evenodd" clip-rule="evenodd" d="M1236.74 1035.31C1224.64 1035.31 1214.76 1033.41 1214.76 1031.09C1214.76 1028.77 1224.64 1026.86 1236.74 1026.86C1248.85 1026.86 1258.73 1028.77 1258.73 1031.09C1258.73 1033.41 1248.85 1035.31 1236.74 1035.31Z" fill="#EFBD19"/>
<path fill-rule="evenodd" clip-rule="evenodd" d="M1177.77 1047.16C1171.73 1047.16 1166.78 1046.22 1166.78 1045.05C1166.78 1043.88 1171.71 1042.94 1177.77 1042.94C1183.82 1042.94 1188.76 1043.88 1188.76 1045.05C1188.76 1046.22 1183.82 1047.16 1177.77 1047.16Z" fill="#EFBD19"/>
<path fill-rule="evenodd" clip-rule="evenodd" d="M1143.31 1063.36C1139.2 1063.36 1135.87 1062.73 1135.87 1061.94C1135.87 1061.15 1139.22 1060.51 1143.31 1060.51C1147.39 1060.51 1150.74 1061.15 1150.74 1061.94C1150.74 1062.73 1147.39 1063.36 1143.31 1063.36Z" fill="#EFBD19"/>
<path fill-rule="evenodd" clip-rule="evenodd" d="M802.326 1077.79C802.859 1077.72 986.28 1053.4 996.738 1052.11C1006.8 1050.86 1143.27 1020.61 1143.67 1020.52C1173.7 1013.33 1254.5 1004.57 1290.01 999.466L1290.12 1001.48L1144.06 1022.48C1140.15 1023.34 1006.84 1052.88 996.756 1054.14C986.933 1055.36 802.91 1079.75 802.378 1079.82L802.343 1077.81L802.326 1077.79Z" fill="#EFBD19"/>
<path fill-rule="evenodd" clip-rule="evenodd" d="M1003.64 840.172C1003.64 840.172 839.229 848.348 866.413 842.628C893.581 836.909 1003.64 840.172 1003.64 840.172Z" fill="white"/>
<path fill-rule="evenodd" clip-rule="evenodd" d="M331.004 796.527C331.004 796.527 966.188 797.627 861.211 789.227C756.235 780.845 331.004 796.527 331.004 796.527Z" fill="white"/>
<path fill-rule="evenodd" clip-rule="evenodd" d="M929.336 807.52C929.336 807.52 369.523 822.876 462.032 812.123C554.558 801.371 929.336 807.52 929.336 807.52Z" fill="white"/>
<path fill-rule="evenodd" clip-rule="evenodd" d="M944.981 816.28C944.981 816.28 640.354 828.596 690.704 819.973C741.055 811.351 944.981 816.28 944.981 816.28Z" fill="white"/>
<path fill-rule="evenodd" clip-rule="evenodd" d="M863.391 826.603C863.391 826.603 558.764 838.918 609.115 830.296C659.465 821.673 863.391 826.603 863.391 826.603Z" fill="white"/>
<path fill-rule="evenodd" clip-rule="evenodd" d="M984.89 831.653C984.89 831.653 737.534 843.968 778.422 835.346C819.293 826.723 984.89 831.653 984.89 831.653Z" fill="white"/>
<path fill-rule="evenodd" clip-rule="evenodd" d="M864.148 838.747C864.148 838.747 699.737 846.923 726.921 841.203C754.088 835.483 864.148 838.747 864.148 838.747Z" fill="white"/>
<path fill-rule="evenodd" clip-rule="evenodd" d="M1003.68 852.162C1003.68 852.162 839.264 860.338 866.448 854.618C893.616 848.898 1003.68 852.162 1003.68 852.162Z" fill="white"/>
<path fill-rule="evenodd" clip-rule="evenodd" d="M1067.54 859.668C1067.54 859.668 903.131 867.844 930.316 862.124C957.483 856.404 1067.54 859.668 1067.54 859.668Z" fill="white"/>
<path fill-rule="evenodd" clip-rule="evenodd" d="M846.546 902.127C732.176 899.225 598.727 893.952 615.419 885.346C628.642 878.527 596.099 874.903 557.203 872.945C598.933 874.491 645.127 873.872 625.55 883.697C613.375 889.795 736.366 896.992 846.563 902.127H846.546Z" fill="white"/>
<path fill-rule="evenodd" clip-rule="evenodd" d="M1466.48 1077.81C1454.37 1077.81 1444.5 1075.9 1444.5 1073.58C1444.5 1071.26 1454.37 1069.36 1466.48 1069.36C1478.59 1069.36 1488.46 1071.26 1488.46 1073.58C1488.46 1075.9 1478.59 1077.81 1466.48 1077.81Z" fill="#EFBD19"/>
<path d="M289.31 913.713L287.734 914.353L289.614 918.984L291.19 918.344L289.31 913.713Z" fill="#EFBD19"/>
<path d="M239.765 987.639L235.979 989.179L240.486 1000.27L244.272 998.73L239.765 987.639Z" fill="#EFBD19"/>
<path d="M462.216 1044.32L454.74 1053.67L457.932 1056.22L465.408 1046.87L462.216 1044.32Z" fill="#EFBD19"/>
<path d="M1981.84 1071.42L2650.29 766L2128.81 811.459L-554.216 1013.58L-557.029 1077.77L1981.84 1071.42Z" fill="#E2E1E1" stroke="black" stroke-width="6"/>
</g>
<defs>
<clipPath id="clip0_779_1974">
<rect width="1992" height="1070" fill="white"/>
</clipPath>
</defs>
</svg>
